<svg xmlns="http://www.w3.org/2000/svg" xmlns:xlink="http://www.w3.org/1999/xlink" style="width: 100%; height: 100%" viewBox="0 0 640 640" preserveAspectRatio="none" width="640" height="640"><defs><svg width="640" height="640" viewBox="0 0 640 640" fill="none" xmlns="http://www.w3.org/2000/svg" id="svg-1584114495_2181">
<g clip-path="url(#svg-1584114495_2181_clip0_84_49)" fill="none">
<path d="M537.223 102.777C540.382 99.6178 541.962 98.0383 542.548 96.1562C543.051 94.5433 543.014 92.683 542.447 91.0914C541.786 89.2343 540.205 87.775 537.043 84.8564C478.052 30.4025 400.593 -8.64641e-06 320 0C235.131 9.10515e-06 153.737 33.7142 93.7258 93.7258C33.7142 153.737 -2.6977e-06 235.131 0 320C2.56178e-06 400.593 30.4026 478.052 84.8564 537.043C87.775 540.205 89.2343 541.786 91.0915 542.447C92.683 543.014 94.5433 543.051 96.1562 542.548C98.0383 541.962 99.6178 540.382 102.777 537.223L175.185 464.815C178.355 461.645 179.94 460.06 180.542 458.326C181.096 456.73 181.147 455.216 180.7 453.587C180.215 451.816 178.64 450.017 175.492 446.418C144.97 411.532 128 366.641 128 320C128 269.078 148.229 220.242 184.235 184.236C220.242 148.229 269.078 128 320 128C366.641 128 411.532 144.97 446.418 175.492C450.017 178.64 451.816 180.215 453.587 180.7C455.216 181.146 456.73 181.096 458.326 180.542C460.06 179.94 461.645 178.355 464.815 175.185L537.223 102.777Z" fill="#FFFFFF"></path>
<path d="M320 627.2C320 631.667 320 633.901 320.916 635.647C321.701 637.143 323.043 638.432 324.569 639.157C326.35 640.002 328.499 639.916 332.797 639.744C370.452 638.237 407.58 630.089 442.459 615.641C481.283 599.56 516.559 575.989 546.274 546.274C575.989 516.559 599.56 481.283 615.641 442.459C630.089 407.58 638.237 370.452 639.744 332.797C639.916 328.499 640.002 326.35 639.157 324.569C638.432 323.043 637.143 321.701 635.647 320.916C633.901 320 631.667 320 627.2 320H524.8C520.317 320 518.075 320 516.422 320.801C514.902 321.537 513.797 322.572 512.96 324.04C512.051 325.635 511.892 328.02 511.573 332.791C510.182 353.628 505.399 374.128 497.385 393.475C487.736 416.77 473.593 437.936 455.764 455.764C437.936 473.593 416.77 487.736 393.475 497.385C374.128 505.399 353.628 510.182 332.791 511.573C328.02 511.892 325.635 512.051 324.039 512.96C322.572 513.797 321.537 514.902 320.801 516.422C320 518.075 320 520.317 320 524.8V627.2Z" fill="#FFFFFF"></path>
</g>
<defs>
<clipPath id="svg-1584114495_2181_clip0_84_49">
<rect width="640" height="640" fill="white"></rect>
</clipPath>
</defs>
</svg></defs><use href="#svg-1584114495_2181"></use></svg>